<svg id="SvgjsSvg1053" width="288" height="288" xmlns="http://www.w3.org/2000/svg" version="1.1" xmlns:xlink="http://www.w3.org/1999/xlink" xmlns:svgjs="http://svgjs.com/svgjs"><defs id="SvgjsDefs1054"></defs><g id="SvgjsG1055"><svg xmlns="http://www.w3.org/2000/svg" enable-background="new 0 0 512.001 512.001" viewBox="0 0 512.001 512.001" width="288" height="288"><path fill="#ffbf66" d="M354.505,492.444l-86.921-91.634V11.584C267.584,5.187,262.397,0,256,0
	c-6.397,0-11.584,5.187-11.584,11.584V400.81l-86.921,91.634c-4.403,4.642-4.21,11.973,0.432,16.376
	c4.64,4.405,11.974,4.21,16.376-0.432l70.113-73.914v65.943c0,6.397,5.187,11.584,11.584,11.584c6.397,0,11.584-5.187,11.584-11.584
	v-65.943l70.113,73.914c2.277,2.401,5.338,3.612,8.406,3.612c2.862,0,5.729-1.054,7.97-3.18
	C358.714,504.417,358.908,497.086,354.505,492.444z" class="color181818 svgShape"></path><rect width="442.498" height="301.176" x="34.752" y="34.751" fill="#d72323" class="colorbec8d6 svgShape"></rect><path fill="#3e3636" d="M488.833,347.511H23.168c-6.397,0-11.584-5.187-11.584-11.584c0-6.397,5.187-11.584,11.584-11.584
	h465.665c6.397,0,11.584,5.187,11.584,11.584C500.417,342.324,495.231,347.511,488.833,347.511z" class="color4c5870 svgShape"></path></svg></g></svg>