<svg id="SvgjsSvg1042" width="288" height="288" xmlns="http://www.w3.org/2000/svg" version="1.1" xmlns:xlink="http://www.w3.org/1999/xlink" xmlns:svgjs="http://svgjs.com/svgjs"><defs id="SvgjsDefs1043"></defs><g id="SvgjsG1044"><svg xmlns="http://www.w3.org/2000/svg" enable-background="new 0 0 512 512" viewBox="0 0 512 512" width="288" height="288"><circle cx="255.999" cy="55.31" r="36.118" fill="#f5eded" class="color4c5870 svgShape"></circle><path fill="#f5eded" d="M256,126.923c-41.27,0-74.726,33.456-74.726,74.726h149.452
		C330.726,160.379,297.27,126.923,256,126.923z" class="color4c5870 svgShape"></path><circle cx="87.18" cy="347.712" r="38.471" fill="#d72323" class="color181818 svgShape"></circle><path fill="#d72323" d="M87.18,419.326c-41.27,0-74.726,33.456-74.726,74.726h149.452
		C161.906,452.782,128.45,419.326,87.18,419.326z" class="color181818 svgShape"></path><circle cx="424.817" cy="347.712" r="38.471" fill="#3e3636" class="color269af2 svgShape"></circle><path fill="#3e3636" d="M424.818,419.326c-41.27,0-74.726,33.456-74.726,74.726h149.452
		C499.544,452.782,466.088,419.326,424.818,419.326z" class="color269af2 svgShape"></path><path fill="#000000" d="M256 105.128c27.469 0 49.817-22.348 49.817-49.817S283.469 5.494 256 5.494s-49.817 22.348-49.817 49.817S228.531 105.128 256 105.128zM256 30.402c13.735 0 24.909 11.174 24.909 24.909S269.735 80.22 256 80.22c-13.735 0-24.909-11.174-24.909-24.909S242.264 30.402 256 30.402zM181.274 214.104c6.877 0 12.454-5.576 12.454-12.454 0-34.337 27.935-62.272 62.272-62.272s62.272 27.935 62.272 62.272c0 6.879 5.577 12.454 12.454 12.454 6.877 0 12.454-5.576 12.454-12.454 0-48.071-39.109-87.18-87.18-87.18s-87.18 39.109-87.18 87.18C168.82 208.528 174.396 214.104 181.274 214.104zM87.18 397.531c27.469 0 49.817-22.348 49.817-49.817s-22.348-49.817-49.817-49.817-49.817 22.348-49.817 49.817S59.712 397.531 87.18 397.531zM87.18 322.805c13.735 0 24.909 11.174 24.909 24.909s-11.174 24.909-24.909 24.909-24.909-11.174-24.909-24.909S73.446 322.805 87.18 322.805zM87.18 406.872c-48.071 0-87.18 39.109-87.18 87.18 0 6.879 5.577 12.454 12.454 12.454s12.454-5.576 12.454-12.454c0-34.337 27.935-62.272 62.272-62.272s62.272 27.935 62.272 62.272c0 6.879 5.577 12.454 12.454 12.454 6.877 0 12.454-5.576 12.454-12.454C174.361 445.981 135.252 406.872 87.18 406.872zM424.818 397.531c27.469 0 49.817-22.348 49.817-49.817s-22.348-49.817-49.817-49.817-49.817 22.348-49.817 49.817S397.35 397.531 424.818 397.531zM424.818 322.805c13.735 0 24.909 11.174 24.909 24.909s-11.174 24.909-24.909 24.909-24.909-11.174-24.909-24.909S411.084 322.805 424.818 322.805zM424.82 406.872c-48.071 0-87.18 39.109-87.18 87.18 0 6.879 5.577 12.454 12.454 12.454s12.454-5.576 12.454-12.454c0-34.337 27.935-62.272 62.272-62.272s62.272 27.935 62.272 62.272c0 6.879 5.577 12.454 12.454 12.454S512 500.931 512 494.052C512 445.981 472.89 406.872 424.82 406.872zM333.412 340.802l-64.958-37.504v-75.009c0-6.879-5.577-12.454-12.454-12.454s-12.454 5.576-12.454 12.454v75.009l-64.958 37.504c-5.957 3.439-7.998 11.056-4.558 17.013 3.44 5.957 11.058 7.998 17.013 4.558L256 324.869l64.958 37.504c1.962 1.132 4.102 1.67 6.215 1.67 4.304 0 8.491-2.233 10.798-6.228C341.411 351.857 339.369 344.24 333.412 340.802z" class="color11113f svgShape"></path></svg></g></svg>