<svg id="SvgjsSvg1001" width="288" height="288" xmlns="http://www.w3.org/2000/svg" version="1.1" xmlns:xlink="http://www.w3.org/1999/xlink" xmlns:svgjs="http://svgjs.com/svgjs"><defs id="SvgjsDefs1002"></defs><g id="SvgjsG1008" transform="matrix(1,0,0,1,0,0)"><svg xmlns="http://www.w3.org/2000/svg" enable-background="new 0 0 512 512" viewBox="0 0 512 512" width="288" height="288"><path fill="#f5eded" d="M187.275,183.266c0-37.956,30.769-68.725,68.725-68.725s68.725,30.769,68.725,68.725V256h-137.45
	V183.266z" class="color181818 svgShape"></path><polygon fill="#3e3636" points="152.913 217.629 169.521 466.183 342.479 466.183 359.087 217.629" class="color4c5870 svgShape"></polygon><circle cx="256" cy="45.817" r="40.089" fill="#f5eded" class="color181818 svgShape"></circle><path fill="#3e3636" d="M256,149.179c-6.326,0-11.454,5.129-11.454,11.454v56.996h22.908v-56.996
	C267.454,154.308,262.325,149.179,256,149.179z" class="color4c5870 svgShape"></path><path fill="#afa2a2" d="M393.45,229.083H118.55c-6.326,0-11.454-5.129-11.454-11.454s5.128-11.454,11.454-11.454H393.45
	c6.325,0,11.454,5.129,11.454,11.454S399.775,229.083,393.45,229.083z" class="colora2a9af svgShape"></path><circle cx="256" cy="363.096" r="37.226" fill="#f22626" class="color269af2 svgShape"></circle><path fill="#f22626" d="M256,431.821c-37.956,0-68.725,30.769-68.725,68.725h137.45
		C324.725,462.59,293.956,431.821,256,431.821z" class="color269af2 svgShape"></path><circle cx="427.812" cy="363.096" r="37.226" fill="#f22626" class="color269af2 svgShape"></circle><path fill="#f22626" d="M428.957,431.821c-37.956,0-68.725,30.769-68.725,68.725h137.45
		C497.682,462.59,466.913,431.821,428.957,431.821z" class="color269af2 svgShape"></path><circle cx="83.043" cy="363.096" r="37.226" fill="#f22626" class="color269af2 svgShape"></circle><path fill="#f22626" d="M83.043,431.821c-37.956,0-68.725,30.769-68.725,68.725h137.45
		C151.767,462.59,120.998,431.821,83.043,431.821z" class="color269af2 svgShape"></path><path fill="#000000" d="M256 91.633c25.263 0 45.817-20.553 45.817-45.817S281.263 0 256 0s-45.817 20.553-45.817 45.817S230.737 91.633 256 91.633zM256 22.908c12.632 0 22.908 10.277 22.908 22.908S268.632 68.725 256 68.725s-22.908-10.277-22.908-22.908S243.368 22.908 256 22.908zM187.275 194.72c6.326 0 11.454-5.129 11.454-11.454 0-31.579 25.692-57.271 57.271-57.271s57.271 25.692 57.271 57.271c0 6.325 5.129 11.454 11.454 11.454s11.454-5.129 11.454-11.454c0-44.211-35.968-80.179-80.179-80.179s-80.179 35.968-80.179 80.179C175.821 189.591 180.949 194.72 187.275 194.72z" class="color11113f svgShape"></path><path fill="#000000" d="M353.9,433.458l15.792-204.375h35.212c6.325,0,11.454-5.129,11.454-11.454
		s-5.129-11.454-11.454-11.454h-137.45v-45.542c0-6.325-5.129-11.454-11.454-11.454c-6.326,0-11.454,5.129-11.454,11.454v45.542
		h-137.45c-6.326,0-11.454,5.129-11.454,11.454s5.128,11.454,11.454,11.454h35.213l15.792,204.375
		c0.464,6.007,5.482,10.572,11.407,10.572c0.296,0,0.596-0.013,0.895-0.034c6.307-0.488,11.025-5.995,10.538-12.303l-15.656-202.61
		h181.428l-15.656,202.61c-0.487,6.308,4.231,11.815,10.538,12.303c0.301,0.023,0.598,0.034,0.895,0.034
		C348.417,444.03,353.435,439.464,353.9,433.458z" class="color11113f svgShape"></path><path fill="#000000" d="M301.817 363.096c0-25.263-20.553-45.817-45.817-45.817s-45.817 20.553-45.817 45.817 20.553 45.817 45.817 45.817S301.817 388.359 301.817 363.096zM233.092 363.096c0-12.632 10.277-22.908 22.908-22.908s22.908 10.277 22.908 22.908c0 12.632-10.277 22.908-22.908 22.908S233.092 375.728 233.092 363.096zM256 420.367c-44.211 0-80.179 35.968-80.179 80.179 0 6.325 5.128 11.454 11.454 11.454 6.326 0 11.454-5.129 11.454-11.454 0-31.579 25.692-57.271 57.271-57.271s57.271 25.692 57.271 57.271c0 6.325 5.129 11.454 11.454 11.454s11.454-5.129 11.454-11.454C336.179 456.335 300.211 420.367 256 420.367zM383.141 363.096c0 25.263 20.553 45.817 45.817 45.817s45.817-20.553 45.817-45.817-20.553-45.817-45.817-45.817S383.141 337.833 383.141 363.096zM428.957 340.188c12.632 0 22.908 10.277 22.908 22.908 0 12.632-10.277 22.908-22.908 22.908-12.632 0-22.908-10.277-22.908-22.908C406.049 350.465 416.326 340.188 428.957 340.188zM428.957 420.367c-44.211 0-80.179 35.968-80.179 80.179 0 6.325 5.129 11.454 11.454 11.454s11.454-5.129 11.454-11.454c0-31.579 25.692-57.271 57.271-57.271s57.271 25.692 57.271 57.271c0 6.325 5.129 11.454 11.454 11.454 6.325 0 11.454-5.129 11.454-11.454C509.136 456.335 473.168 420.367 428.957 420.367zM83.043 408.913c25.263 0 45.817-20.553 45.817-45.817s-20.553-45.817-45.817-45.817-45.817 20.553-45.817 45.817S57.779 408.913 83.043 408.913zM83.043 340.188c12.632 0 22.908 10.277 22.908 22.908 0 12.632-10.277 22.908-22.908 22.908s-22.908-10.277-22.908-22.908C60.134 350.465 70.411 340.188 83.043 340.188zM83.043 420.367c-44.211 0-80.179 35.968-80.179 80.179 0 6.325 5.128 11.454 11.454 11.454s11.454-5.129 11.454-11.454c0-31.579 25.692-57.271 57.271-57.271s57.271 25.692 57.271 57.271c0 6.325 5.128 11.454 11.454 11.454 6.326 0 11.454-5.129 11.454-11.454C163.221 456.335 127.253 420.367 83.043 420.367z" class="color11113f svgShape"></path></svg></g></svg>