<svg width="184" height="50" viewBox="0 0 184 50" fill="none" xmlns="http://www.w3.org/2000/svg">
<path d="M49 0H0V49H49V0Z" fill="white"/>
<path d="M0.5 48.5V0.5H48.5V48.5H0.5Z" fill="black" stroke="white"/>
<path d="M13.2788 32.6485V33.3618C13.2788 34.1849 13.0594 34.7336 12.6753 35.1725C12.1265 35.7213 11.1389 36.1602 9.05375 36.1602C6.69429 36.1602 5.70661 35.6664 5.15789 35.0628C4.66405 34.569 4.3897 33.8556 4.3897 32.9777C4.3897 32.1546 4.66405 31.3864 5.15789 30.8926C5.70661 30.3439 6.80403 29.7952 9.05375 29.7952C10.8096 29.7952 12.1814 30.1244 12.8947 30.5085V31.7157C12.0717 31.2218 10.645 30.8926 9.05375 30.8926C7.40762 30.8926 6.58455 31.2218 6.20045 31.6059C5.87122 31.9351 5.70661 32.3741 5.70661 32.9777C5.70661 33.6362 5.87122 34.0751 6.20045 34.3495C6.58455 34.7336 7.29787 35.0628 9.05375 35.0628C10.4804 35.0628 11.3583 34.7884 11.6876 34.4592C11.9071 34.2397 12.0168 33.9654 12.0168 33.691H8.3953V32.5936H13.2788V32.6485Z" fill="white"/>
<path d="M20.7413 34.6787C20.8511 34.569 20.9059 34.4043 20.9059 34.2397C20.9059 34.0751 20.8511 33.9105 20.7413 33.8008C20.5767 33.6362 20.1926 33.5264 18.1624 33.4167C15.8029 33.3069 15.0896 33.0874 14.7055 32.7033C14.486 32.4839 14.3763 32.0998 14.3763 31.7157C14.3763 31.2767 14.486 30.8377 14.7604 30.5085C15.1445 30.0695 15.9675 29.7952 18.0526 29.7952C19.6988 29.7952 20.9059 30.0147 21.6741 30.3439V31.4962C20.7962 31.1121 19.3147 30.8377 18.0526 30.8377C16.4614 30.8377 15.9675 31.0023 15.8029 31.1669C15.6932 31.2767 15.6383 31.3864 15.6383 31.551C15.6383 31.7157 15.6932 31.8254 15.748 31.9351C15.9126 32.0998 16.2967 32.2095 18.2172 32.3192C20.6864 32.429 21.3998 32.6485 21.7839 33.0326C22.0034 33.2521 22.168 33.6362 22.168 34.0751C22.168 34.5141 22.0582 34.9531 21.7839 35.2823C21.3449 35.7213 20.5218 36.0505 18.327 36.0505C16.6808 36.0505 15.0896 35.7761 14.2116 35.392V34.2397C15.0896 34.6787 16.9552 35.0079 18.327 35.0079C19.9731 35.0628 20.5218 34.9531 20.7413 34.6787Z" fill="white"/>
<path d="M33.5263 35.9958H32.3191V30.9476L29.1915 35.9958H27.6002L24.4726 30.9476V35.9958H23.2654V29.96H25.2408L28.4233 35.1727L31.6058 29.96H33.5263V35.9958Z" fill="white"/>
<path d="M39.9463 29.905L43.897 35.9957H42.4704L41.5376 34.5691H36.5992L35.6663 35.9957H34.2946L38.2453 29.905H39.9463ZM37.2576 33.4717H40.8791L39.0684 30.6184L37.2576 33.4717Z" fill="white"/>
<path d="M42.4704 30.1243H42.0863V29.9048H43.074V30.1243H42.6899V31.2766H42.4704V30.1243Z" fill="white"/>
<path d="M43.3482 29.9048H43.5677L43.9518 30.5632L44.3359 29.9048H44.5553V31.2766H44.3359V30.2889L43.9518 30.9473L43.5677 30.2889V31.2766H43.3482V29.9048Z" fill="white"/>
<path d="M8.77929 21.8389H4.55421V26.8321H8.77929V21.8389Z" fill="#5E0F08"/>
<path d="M16.6808 19.3696H10.3706V26.8321H16.6808V19.3696Z" fill="#9C1F24"/>
<path d="M27.7647 15.6382H18.272V26.8319H27.7647V15.6382Z" fill="#BF2730"/>
<path d="M43.5676 10.0415H29.5206V26.8321H43.5676V10.0415Z" fill="#CE2B34"/>
<path d="M57.728 32H66.088V14.4L73.92 26.368H74.096L81.972 14.312V32H90.464V1.19998H81.444L74.096 13.124L66.748 1.19998H57.728V32Z" fill="white"/>
<path d="M104.155 32.22H111.591L117.751 14.488L123.955 32.22H131.391L141.687 1.19998H132.843L127.475 19.02L121.535 1.11199H114.187L108.247 19.02L102.879 1.19998H93.8592L104.155 32.22Z" fill="white"/>
<path d="M158.15 32.616C164.97 32.616 168.886 29.668 171.79 25.664L165.366 21.088C163.518 23.332 161.626 24.828 158.414 24.828C154.102 24.828 151.066 21.22 151.066 16.6V16.512C151.066 12.024 154.102 8.37199 158.414 8.37199C161.362 8.37199 163.386 9.77999 165.146 11.98L171.57 7.00799C168.842 3.22398 164.794 0.583984 158.502 0.583984C149.174 0.583984 142.266 7.62399 142.266 16.6V16.688C142.266 25.884 149.35 32.616 158.15 32.616Z" fill="white"/>
<path d="M62.464 37.8001H57.44V49.0001H62.624C65.12 49.0001 66.768 47.9281 66.768 45.9121C66.768 44.3761 65.856 43.6241 64.544 43.1761C65.376 42.7441 66.144 42.0401 66.144 40.6641C66.144 38.9041 64.72 37.8001 62.464 37.8001ZM62.064 42.5201H59.376V39.5441H62.208C63.472 39.5441 64.176 40.0721 64.176 40.9841C64.176 42.0241 63.328 42.5201 62.064 42.5201ZM62.64 47.2561H59.376V44.1841H62.496C64.048 44.1841 64.8 44.7441 64.8 45.7041C64.8 46.7281 63.984 47.2561 62.64 47.2561Z" fill="#DE002B"/>
<path d="M75.8509 49.0001V43.9921C75.8509 41.7361 74.6349 40.4241 72.1389 40.4241C70.7629 40.4241 69.8509 40.7121 68.9229 41.1281L69.4509 42.6801C70.2189 42.3601 70.9229 42.1521 71.8669 42.1521C73.2109 42.1521 73.9469 42.7921 73.9469 43.9601V44.1681C73.2909 43.9601 72.6349 43.8161 71.6109 43.8161C69.6429 43.8161 68.1869 44.7121 68.1869 46.5361V46.5681C68.1869 48.2641 69.5949 49.1761 71.1949 49.1761C72.4749 49.1761 73.3549 48.6481 73.9309 47.9601V49.0001H75.8509ZM73.9789 45.9441C73.9789 47.0001 73.0189 47.7201 71.7389 47.7201C70.8269 47.7201 70.1069 47.2721 70.1069 46.4721V46.4401C70.1069 45.5761 70.8269 45.0801 72.0429 45.0801C72.7949 45.0801 73.4829 45.2241 73.9789 45.4161V45.9441Z" fill="#DE002B"/>
<path d="M80.0895 45.7841C80.0895 43.5441 81.2735 42.4401 82.9695 42.4401H83.0815V40.3921C81.5935 40.3281 80.6175 41.1921 80.0895 42.4561V40.5521H78.1535V49.0001H80.0895V45.7841Z" fill="#DE002B"/>
<path d="M91.8416 47.6081L90.6736 46.4561C90.0656 47.0801 89.3936 47.5121 88.4816 47.5121C86.9936 47.5121 85.9536 46.2961 85.9536 44.7761C85.9536 43.2881 86.9776 42.0721 88.3856 42.0721C89.3616 42.0721 89.9856 42.5041 90.5776 43.1281L91.7776 41.8321C90.9936 40.9681 90.0016 40.3761 88.4016 40.3761C85.8736 40.3761 84.0176 42.3921 84.0176 44.8081C84.0176 47.2241 85.8736 49.1921 88.3856 49.1921C90.0336 49.1921 91.0096 48.5361 91.8416 47.6081Z" fill="#DE002B"/>
<path d="M94.8599 45.4641H101.068C101.084 45.2721 101.1 45.1121 101.1 44.9361C101.1 42.4881 99.7399 40.3761 97.0519 40.3761C94.6359 40.3761 92.9239 42.3601 92.9239 44.7921C92.9239 47.4161 94.8119 49.1921 97.2599 49.1921C98.8119 49.1921 99.9159 48.5681 100.716 47.6081L99.5799 46.6001C98.9079 47.2561 98.2359 47.6081 97.2919 47.6081C96.0439 47.6081 95.0839 46.8401 94.8599 45.4641ZM94.8439 44.1841C95.0199 42.8721 95.8519 41.9601 97.0359 41.9601C98.3159 41.9601 99.0519 42.9361 99.1799 44.1841H94.8439Z" fill="#DE002B"/>
<path d="M105.092 49.0001V37.3201H103.156V49.0001H105.092Z" fill="#DE002B"/>
<path d="M116.166 44.7761C116.166 42.3441 114.262 40.3761 111.67 40.3761C109.078 40.3761 107.158 42.3761 107.158 44.8081C107.158 47.2241 109.062 49.1921 111.638 49.1921C114.246 49.1921 116.166 47.1921 116.166 44.7761ZM114.23 44.8081C114.23 46.2961 113.238 47.5121 111.67 47.5121C110.166 47.5121 109.094 46.2801 109.094 44.7761C109.094 43.2881 110.086 42.0721 111.638 42.0721C113.158 42.0721 114.23 43.3041 114.23 44.8081Z" fill="#DE002B"/>
<path d="M120.074 44.2321C120.074 42.9201 120.858 42.1361 121.978 42.1361C123.13 42.1361 123.786 42.8881 123.786 44.2001V49.0001H125.722V43.6241C125.722 41.6561 124.618 40.3761 122.714 40.3761C121.402 40.3761 120.618 41.0641 120.074 41.8641V40.5521H118.138V49.0001H120.074V44.2321Z" fill="#DE002B"/>
<path d="M135.148 49.0001V43.9921C135.148 41.7361 133.932 40.4241 131.436 40.4241C130.06 40.4241 129.148 40.7121 128.22 41.1281L128.748 42.6801C129.516 42.3601 130.22 42.1521 131.164 42.1521C132.508 42.1521 133.244 42.7921 133.244 43.9601V44.1681C132.588 43.9601 131.932 43.8161 130.908 43.8161C128.94 43.8161 127.484 44.7121 127.484 46.5361V46.5681C127.484 48.2641 128.892 49.1761 130.492 49.1761C131.772 49.1761 132.652 48.6481 133.228 47.9601V49.0001H135.148ZM133.276 45.9441C133.276 47.0001 132.316 47.7201 131.036 47.7201C130.124 47.7201 129.404 47.2721 129.404 46.4721V46.4401C129.404 45.5761 130.124 45.0801 131.34 45.0801C132.092 45.0801 132.78 45.2241 133.276 45.4161V45.9441Z" fill="#DE002B"/>
<path d="M176.398 6.00005H177.562V2.82005H178.822V1.80005H175.138V2.82005H176.398V6.00005Z" fill="white"/>
<path d="M179.333 6.00005H180.473V3.60005L181.541 5.23205H181.565L182.639 3.58805V6.00005H183.797V1.80005H182.567L181.565 3.42605L180.563 1.80005H179.333V6.00005Z" fill="white"/>
</svg>
