<svg id="SvgjsSvg1070" width="288" height="288" xmlns="http://www.w3.org/2000/svg" version="1.1" xmlns:xlink="http://www.w3.org/1999/xlink" xmlns:svgjs="http://svgjs.com/svgjs"><defs id="SvgjsDefs1071"></defs><g id="SvgjsG1072"><svg xmlns="http://www.w3.org/2000/svg" width="288" height="288" enable-background="new 0 0 100 100" viewBox="0 0 100 100"><g id="Layer_2" fill="#ff8066" class="color000 svgShape"><path fill="#d72323" d="M50,2.5c-58.892,1.725-64.898,84.363-7.46,95l0,0h0H50h7.46l0,0C114.911,86.853,108.879,4.219,50,2.5z" class="color1877f2 svgShape"></path><path fill="#3e3636" d="M57.46,64.104h11.125l2.117-13.814H57.46v-8.965c0-3.779,1.85-7.463,7.781-7.463h6.021    c0,0,0-11.761,0-11.761c-12.894-2.323-28.385-1.616-28.722,17.66V50.29H30.417v13.814H42.54c0,0,0,33.395,0,33.396H50h7.46l0,0h0    V64.104z" class="colorf1f1f1 svgShape"></path></g></svg></g></svg>