<svg xmlns="http://www.w3.org/2000/svg" enable-background="new 0 0 512 512" viewBox="0 0 512 512"><rect width="91" height="10" x="210" y="78" fill="#0d0d0d"/><rect width="200" height="10" x="156" y="117" fill="#0d0d0d"/><rect width="256" height="10" x="128" y="156" fill="#0d0d0d"/><rect width="133" height="10" x="194" y="194" fill="#0d0d0d"/><rect width="155" height="10" x="201" y="233" fill="#0d0d0d"/><rect width="211" height="10" x="173" y="272" fill="#0d0d0d"/><path fill="#0d0d0d" d="M202.9 264.8c-.6 0-1.1-.1-1.7-.3l-141-51.3c-1.2-.5-2.3-1.4-2.8-2.6-.6-1.2-.6-2.6-.2-3.8l6.8-18.8c.9-2.6 3.8-3.9 6.4-3l141 51.3c1.2.5 2.3 1.4 2.8 2.6.6 1.2.6 2.6.2 3.8l-6.8 18.8C206.8 263.6 204.9 264.8 202.9 264.8zM68.3 205.5l131.6 47.9 3.4-9.4L71.8 196.1 68.3 205.5zM87.5 447.4c-.6 0-1.1-.1-1.7-.3l-54.5-19.8c-2.5-.9-3.8-3.5-3.1-6.1L75 254.6l9.6 2.7L39.1 419.4l45.8 16.7 69.4-153.6 9.1 4.1L92.1 444.4C91.2 446.3 89.4 447.4 87.5 447.4z"/><path fill="#0d0d0d" d="M62.4 475.5c-.6 0-1.2-.1-1.7-.3l-28.2-10.3c-2.6-.9-3.9-3.8-3-6.4l12-32.9c.5-1.2 1.4-2.3 2.6-2.8s2.6-.6 3.8-.2l28.2 10.3c2.6.9 3.9 3.8 3 6.4l-12 32.9c-.5 1.2-1.4 2.3-2.6 2.8C63.8 475.3 63.1 475.5 62.4 475.5zM40.6 457.2l18.8 6.8 8.6-23.5-18.8-6.8L40.6 457.2zM88.6 369.5c-1.7 0-3.5-.3-5.1-.9-3.8-1.4-6.8-4.1-8.5-7.8-1.7-3.6-1.9-7.7-.5-11.5l6.8-18.8c1.4-3.8 4.1-6.8 7.8-8.5 3.6-1.7 7.7-1.9 11.5-.5 3.8 1.4 6.8 4.1 8.5 7.8 1.7 3.6 1.9 7.7.5 11.5l-6.8 18.8c-1.4 3.8-4.1 6.8-7.8 8.5C93 369 90.8 369.5 88.6 369.5zM95.5 330.7c-.7 0-1.4.2-2.1.5-1.2.6-2.1 1.6-2.6 2.8l-6.8 18.8c-.5 1.3-.4 2.6.2 3.8.6 1.2 1.6 2.1 2.8 2.6s2.6.4 3.8-.2c1.2-.6 2.1-1.6 2.6-2.8l6.8-18.8c.5-1.3.4-2.6-.2-3.8-.6-1.2-1.6-2.1-2.8-2.6C96.6 330.8 96 330.7 95.5 330.7zM135.8 293.8c-8 0-16-1.4-23.6-4.2-15.5-5.7-28.5-16.7-36.6-31.1-8-14.3-10.7-30.9-7.5-46.9l9.8 1.9c-5.6 28.6 10.3 56.7 37.7 66.7 27.4 10 57.5-1.2 71.7-26.7l8.7 4.9c-7.9 14.2-20.6 25.2-35.9 30.9C152.4 292.3 144.1 293.8 135.8 293.8zM203.6 238l-9.8-1.9c5.6-28.6-10.3-56.7-37.7-66.7-20.9-7.6-44.1-2.9-60.4 12.3l-6.8-7.3c19.1-17.8 46.2-23.3 70.7-14.4 15.5 5.7 28.5 16.7 36.6 31.1C204 205.4 206.7 222 203.6 238z"/><path fill="#0d0d0d" d="M85.5 512c-9.9 0-19.6-2.7-28-7.9-13.9-8.5-20.2-25.3-15.4-40.8l9.6 2.9c-3.4 11.2 1.1 23.2 11.1 29.4 6.9 4.2 14.7 6.4 22.8 6.4 20.9 0 40.8-6.4 57.8-18.6l55.3-39.6c6.3-4.5 13.6-6.9 21.3-6.9 9.6 0 18.3 5.3 22.7 13.9 4.4 8.6 3.6 18.7-2 26.5l-8.1-5.9c3.5-4.8 3.9-10.8 1.2-16.1-2.7-5.3-7.9-8.4-13.8-8.4-5.6 0-11 1.7-15.5 5l-55.3 39.6C130.5 504.9 108.5 512 85.5 512zM467 320H145v-10h317V50H50v260h11.9v10H45c-2.8 0-5-2.2-5-5V45c0-2.8 2.2-5 5-5h422c2.8 0 5 2.2 5 5v270C472 317.8 469.8 320 467 320z"/><path fill="#0d0d0d" d="M507,360H145.8v-10H502V10H10v340h42v10H5c-2.8,0-5-2.2-5-5V5c0-2.8,2.2-5,5-5h502
				c2.8,0,5,2.2,5,5v350C512,357.8,509.8,360,507,360z"/></svg>