<svg id="SvgjsSvg1060" width="288" height="288" xmlns="http://www.w3.org/2000/svg" version="1.1" xmlns:xlink="http://www.w3.org/1999/xlink" xmlns:svgjs="http://svgjs.com/svgjs"><defs id="SvgjsDefs1061"></defs><g id="SvgjsG1062"><svg xmlns="http://www.w3.org/2000/svg" enable-background="new 0 0 512 512" viewBox="0 0 512 512" width="288" height="288"><polygon fill="#ff8066" points="198.714 10.51 41.383 167.84 59.128 215.311 41.383 262.781 181.661 403.058 280.093 501.49 484.893 296.689" class="colore6e2e0 svgShape"></polygon><polygon fill="#f5eded" points="42.434 167.84 42.434 262.781 89.904 215.311" class="colorccc4c1 svgShape"></polygon><polygon fill="#851f1f" points="125.111 413.967 340.777 198.302 296.05 153.575 80.385 369.241 87.884 406.468" class="color1f5985 svgShape"></polygon><path fill="#f5eded" d="M78.283,371.343c-31.446,31.446-40.994,61.018-28.643,73.369s41.923,2.803,73.369-28.643
	L78.283,371.343z" class="colorccc4c1 svgShape"></path><path fill="#f22626" d="M271.374,161.778L375.959,57.193c16.583-16.583,43.566-16.583,60.149,0s16.583,43.566,0,60.149
	L331.523,221.927L271.374,161.778z" class="color269af2 svgShape"></path><path fill="#000000" d="M29.873 263.808c.009.09.027.179.039.269.03.251.063.501.111.749.016.077.039.152.056.229.057.259.117.516.193.771.017.055.039.107.057.162.087.272.18.542.289.808.016.037.035.073.05.109.118.276.244.551.387.819.022.042.049.081.073.122.141.256.288.51.453.757.067.101.146.197.218.295.128.179.252.359.394.532.222.272.457.534.707.784l50.962 50.961c2.053 2.052 4.742 3.078 7.431 3.078 2.689 0 5.38-1.027 7.431-3.078 4.104-4.104 4.104-10.759 0-14.864l-43.53-43.53 40.039-40.039c1.971-1.972 3.078-4.644 3.078-7.431s-1.108-5.46-3.078-7.431L55.195 167.84 197.664 25.374l83.288 83.288c4.105 4.103 10.76 4.104 14.864 0 4.104-4.104 4.104-10.759 0-14.864l-90.72-90.72C203.124 1.108 200.451 0 197.664 0s-5.461 1.108-7.431 3.078L32.901 160.409c-.248.249-.482.509-.703.778-.184.224-.35.457-.512.692-.032.046-.068.088-.1.136-.184.274-.35.557-.506.845-.006.012-.015.022-.02.035-.154.289-.292.583-.417.883-.006.016-.015.03-.021.045-.116.282-.215.568-.307.855-.013.039-.028.077-.04.116-.081.267-.144.538-.203.81-.014.064-.034.127-.046.191-.051.26-.085.52-.117.782-.009.08-.026.158-.035.238-.034.342-.05.684-.05 1.027v94.942c0 .009.001.018.001.026C29.825 263.142 29.84 263.476 29.873 263.808zM50.842 193.213l22.098 22.098-22.098 22.098V193.213zM324.091 230.41c2.053 2.051 4.742 3.078 7.431 3.078 2.689 0 5.379-1.027 7.431-3.078l104.586-104.586c20.68-20.682 20.68-54.331 0-75.013-20.683-20.679-54.332-20.679-75.013 0L263.941 155.397c-4.104 4.104-4.104 10.759 0 14.864l.28.28L70.85 363.912c-29.833 29.833-42.571 60.024-34.586 79.313l-15.538 15.539c-4.104 4.104-4.104 10.759 0 14.864 2.053 2.051 4.742 3.078 7.431 3.078s5.38-1.027 7.431-3.078l15.561-15.562c3.406 1.41 7.603 2.397 12.712 2.396 5.306 0 11.586-1.058 18.957-3.792 15.033-5.578 31.5-17.047 47.622-33.168L323.812 230.13 324.091 230.41zM75.508 436.963c-8.568 3.177-15.459 3.298-18.437.318-5.69-5.69-.858-25.883 21.42-50.865l29.444 29.443C96.618 425.944 85.335 433.317 75.508 436.963zM123.009 401.206l-29.863-29.863 185.939-185.939 7.5 7.5-6.89 6.89c-4.104 4.104-4.104 10.759 0 14.864 2.053 2.051 4.742 3.078 7.431 3.078s5.379-1.027 7.431-3.078l6.89-6.89 7.5 7.5L123.009 401.206zM416.411 77.941c-4.105-4.103-10.758-4.103-14.864 0L301.448 178.04l-14.922-14.922c-.003-.003-.006-.007-.009-.01s-.007-.006-.011-.009l-.269-.269 97.154-97.154c12.484-12.486 32.8-12.486 45.286 0 12.486 12.486 12.486 32.801 0 45.286l-97.154 97.154-.269-.269c-.003-.003-.006-.007-.009-.01-.003-.003-.007-.006-.01-.009l-14.922-14.922L416.412 92.806C420.515 88.7 420.515 82.045 416.411 77.941zM491.274 289.258l-90.72-90.72c-4.105-4.103-10.758-4.103-14.864 0-4.104 4.104-4.104 10.759 0 14.864l83.288 83.288L279.042 486.626l-91.001-91.001c-4.104-4.103-10.759-4.103-14.864 0-4.104 4.104-4.104 10.759 0 14.864l98.432 98.432c2.053 2.051 4.742 3.078 7.431 3.078s5.379-1.027 7.431-3.078l204.801-204.801C495.378 300.017 495.378 293.362 491.274 289.258z" class="color11113f svgShape"></path></svg></g></svg>